<svg id="Capa_1" enable-background="new 0 0 512 512" height="512" viewBox="0 0 512 512" width="512" xmlns="http://www.w3.org/2000/svg"><g><g><path d="m216.665 183.682h-91.164l-64.463 64.463v91.164l64.463 64.463h91.164l64.463-64.463v-91.164z" fill="#ffbdbc"/></g><g fill="#020288"><path d="m334.892 262.13h108c5.522 0 10-4.478 10-10s-4.478-10-10-10h-108c-5.522 0-10 4.478-10 10s4.477 10 10 10z"/><path d="m334.892 306.842h108c5.522 0 10-4.478 10-10s-4.478-10-10-10h-108c-5.522 0-10 4.478-10 10s4.477 10 10 10z"/><path d="m334.892 351.553h108c5.522 0 10-4.478 10-10s-4.478-10-10-10h-108c-5.522 0-10 4.478-10 10s4.477 10 10 10z"/><path d="m476.566 44.91h-441.132c-19.539 0-35.434 16.01-35.434 35.688v350.805c0 19.678 15.895 35.688 35.434 35.688h441.132c19.538 0 35.434-16.01 35.434-35.688v-350.805c0-19.678-15.896-35.688-35.434-35.688zm-456.566 35.688c0-8.65 6.924-15.688 15.434-15.688h441.132c8.51 0 15.434 7.037 15.434 15.688v39.766h-472zm472 350.804c0 8.65-6.924 15.688-15.434 15.688h-441.132c-8.51 0-15.434-7.037-15.434-15.688v-291.039h472z"/><path d="m82.894 82.637h-13.788c-5.523 0-10 4.478-10 10s4.477 10 10 10h13.787c5.523 0 10-4.478 10-10 .001-5.523-4.477-10-9.999-10z"/><path d="m139.957 82.637h-13.787c-5.523 0-10 4.478-10 10s4.477 10 10 10h13.787c5.523 0 10-4.478 10-10 0-5.523-4.477-10-10-10z"/><path d="m197.021 82.637h-13.788c-5.523 0-10 4.478-10 10s4.477 10 10 10h13.788c5.523 0 10-4.478 10-10 0-5.523-4.477-10-10-10z"/><path d="m442.894 82.637h-48.937c-5.522 0-10 4.478-10 10s4.478 10 10 10h48.937c5.522 0 10-4.478 10-10 0-5.523-4.478-10-10-10z"/><path d="m171.083 301.175c5.523 0 10-4.478 10-10v-25.309c0-5.522-4.477-10-10-10s-10 4.478-10 10v25.309c0 5.522 4.477 10 10 10z"/><circle cx="171.083" cy="331.587" r="10"/></g></g></svg>